<?xml version="1.0" standalone="no"?>
<!DOCTYPE svg PUBLIC "-//W3C//DTD SVG 20010904//EN"
 "http://www.w3.org/TR/2001/REC-SVG-20010904/DTD/svg10.dtd">
<svg version="1.0" xmlns="http://www.w3.org/2000/svg"
 width="640.000000pt" height="640.000000pt" viewBox="0 0 640.000000 640.000000"
 preserveAspectRatio="xMidYMid meet">
<metadata>
Created by potrace 1.16, written by Peter Selinger 2001-2019
</metadata>
<g transform="translate(0.000000,640.000000) scale(0.100000,-0.100000)"
fill="#000000" stroke="none">
<path d="M2973 5583 c-7 -2 -13 -18 -13 -34 0 -27 -2 -29 -41 -29 l-40 0 3
-42 3 -43 -140 -1 c-77 0 -150 -1 -161 -2 -21 -2 -21 -6 -19 -124 3 -101 0
-126 -12 -140 -15 -16 -15 -20 0 -36 13 -15 15 -31 11 -83 l-6 -65 41 -43 c23
-24 41 -48 40 -55 -4 -33 2 -76 11 -76 6 0 10 32 10 75 l0 75 30 0 30 0 1
-132 c2 -286 4 -329 19 -338 12 -7 278 -3 287 4 2 1 4 64 5 139 2 101 -1 140
-10 149 -8 8 -39 13 -80 13 l-67 0 -3 85 c-2 50 2 93 9 106 7 15 8 27 1 40 -6
11 -9 73 -9 139 l2 120 200 2 c110 1 212 -2 226 -7 17 -5 31 -4 37 2 19 19 32
-2 26 -45 l-6 -42 38 0 c36 0 39 -2 42 -30 3 -34 42 -61 61 -42 24 24 30 -12
24 -164 l-6 -157 -36 -6 c-20 -3 -53 -3 -73 1 l-38 6 -2 -44 c-1 -24 0 -61 1
-82 3 -41 1 -42 -67 -51 -39 -6 -44 -4 -50 16 -6 22 -7 21 -13 -7 -4 -16 -7
-55 -8 -86 l-1 -56 38 -7 c52 -8 215 -7 229 2 7 4 13 38 15 82 3 72 4 75 28
75 19 0 26 -6 31 -30 7 -30 7 -30 8 -3 0 15 6 30 11 33 6 3 10 22 10 41 0 21
4 33 10 29 6 -3 10 -19 10 -36 0 -19 5 -29 15 -29 10 0 15 11 15 35 0 23 5 35
13 35 11 0 14 40 13 203 l-1 202 78 -1 77 -1 0 78 0 78 -71 0 c-39 0 -73 2
-76 5 -3 2 -5 36 -5 74 l0 70 -36 6 c-21 3 -56 6 -78 6 -32 0 -43 4 -47 19 -6
22 -77 36 -77 14 0 -7 9 -13 20 -13 31 0 24 -20 -7 -21 -16 -1 -41 -2 -56 -3
-35 -4 -37 1 -42 76 -2 35 -4 66 -4 71 -1 8 -358 9 -378 0z"/>
<path d="M3754 5505 c70 -71 109 -143 126 -234 11 -62 1 -160 -19 -185 -4 -6
-11 -24 -15 -41 -4 -16 -19 -59 -33 -95 -30 -77 -70 -183 -128 -345 -74 -207
-90 -231 -173 -259 -39 -14 -53 -14 -140 3 -53 11 -114 22 -134 26 -45 7 -47
12 -51 155 l-3 105 -2 -122 c-2 -135 5 -153 59 -153 16 0 29 -4 29 -8 0 -4 46
-15 103 -25 94 -16 107 -16 155 -2 28 9 52 20 52 24 0 5 9 11 20 14 11 3 24
18 30 34 6 15 19 44 29 63 10 19 22 51 26 70 4 19 11 37 14 40 8 6 41 107 41
126 0 8 4 14 9 14 4 0 16 30 26 68 10 37 24 76 31 87 7 11 18 40 25 65 7 25
16 47 19 50 10 7 40 100 40 122 0 10 5 18 10 18 6 0 10 35 10 85 0 50 -4 85
-10 85 -5 0 -10 8 -10 18 0 29 -70 155 -103 184 -32 29 -60 39 -33 13z"/>
<path d="M3074 5216 c-28 -13 -60 -36 -72 -52 -12 -16 -26 -34 -32 -41 -41
-49 -36 -188 9 -250 27 -38 111 -94 111 -74 0 5 -10 13 -22 16 -81 25 -136
188 -90 267 71 123 195 166 305 103 26 -15 47 -31 47 -36 0 -4 9 -13 21 -19
18 -10 19 -9 11 7 -28 51 -133 104 -206 102 -17 0 -54 -11 -82 -23z"/>
<path d="M2294 5129 c31 -35 62 -82 72 -108 9 -25 27 -68 40 -96 13 -27 73
-158 134 -290 l112 -240 -5 -65 c-5 -64 -6 -66 -62 -117 -32 -29 -64 -53 -71
-53 -7 0 -14 -3 -16 -7 -1 -5 -23 -21 -48 -38 -25 -16 -48 -34 -52 -39 -8 -12
-63 33 -178 149 -52 52 -96 91 -98 86 -2 -5 -12 -7 -22 -4 -11 3 -20 0 -20 -6
0 -6 4 -11 8 -11 11 0 226 -222 241 -248 8 -14 -35 -97 -68 -132 -8 -8 -20
-29 -27 -46 -19 -44 -67 -90 -110 -104 -59 -20 -131 -6 -238 44 -53 25 -100
46 -104 46 -4 1 -25 9 -47 20 -22 11 -44 19 -48 20 -5 0 -39 18 -77 40 -38 22
-75 40 -82 40 -7 0 -36 15 -64 33 -28 19 -70 44 -95 56 -78 40 -90 48 -125 82
-19 18 -34 30 -34 26 0 -12 71 -80 100 -96 14 -8 43 -24 65 -36 22 -12 58 -32
80 -46 45 -29 130 -69 144 -69 5 0 16 -6 23 -13 15 -15 81 -47 97 -47 6 0 11
-4 11 -9 0 -5 29 -17 65 -27 36 -10 65 -22 65 -25 0 -3 21 -14 48 -24 26 -10
50 -23 54 -29 10 -15 196 -15 206 0 4 6 17 16 30 23 12 6 32 32 43 56 11 24
27 49 35 56 8 6 14 17 14 24 0 8 3 15 8 17 4 2 19 22 35 45 28 44 35 73 17 73
-5 0 -10 6 -10 13 0 7 -38 51 -85 97 -47 47 -90 94 -96 105 -7 15 -6 15 7 -2
9 -13 21 -23 26 -23 5 0 45 -36 88 -80 43 -43 90 -82 103 -85 26 -7 74 13 106
43 10 9 44 32 75 51 31 18 56 37 56 40 0 4 10 18 23 31 19 22 22 35 22 114 0
63 -4 91 -12 93 -7 3 -13 9 -13 14 0 11 -19 54 -105 234 -28 61 -58 126 -65
145 -8 19 -24 55 -37 79 -13 24 -23 50 -23 57 0 8 -4 14 -8 14 -4 0 -14 20
-21 44 -12 43 -112 166 -133 166 -6 0 15 -28 46 -61z"/>
<path d="M1841 5112 c-58 -4 -74 -22 -77 -89 -1 -30 -5 -57 -8 -60 -7 -7 -40
-11 -108 -12 l-48 -1 3 -77 2 -78 -72 0 c-39 0 -75 -4 -80 -8 -4 -5 -8 -41 -8
-80 l0 -72 -63 -3 c-97 -4 -94 3 -96 -250 l-1 -217 65 2 c78 2 130 -6 130 -19
0 -5 -9 -12 -20 -15 -11 -3 -20 -10 -20 -15 0 -6 11 -7 27 -3 16 4 28 7 28 8
0 1 5 11 11 22 8 14 23 21 53 23 49 4 57 -8 41 -67 -10 -39 -34 -55 -42 -30
-4 13 -68 2 -68 -11 0 -5 7 -7 15 -4 10 4 15 0 15 -14 0 -29 17 -36 36 -17 20
19 49 15 48 -6 -1 -13 18 -16 125 -16 69 -1 141 -1 159 -2 l32 -1 0 -74 0 -74
40 -7 c22 -4 58 -4 80 0 l40 7 0 74 0 74 43 0 c23 0 59 3 80 7 37 6 39 7 33
36 -8 39 -10 40 -45 39 -20 0 -28 4 -25 12 3 7 -5 23 -17 37 -21 24 -22 24
-206 24 -123 0 -187 4 -190 11 -5 16 34 58 40 42 4 -8 6 -7 6 5 1 11 -6 17
-20 17 -12 0 -23 8 -26 20 -3 11 -14 20 -23 20 -10 0 -21 9 -25 19 -4 14 -19
21 -54 26 -44 6 -49 9 -55 37 -8 39 -8 135 0 220 l7 67 43 7 c31 4 41 10 37
20 -3 8 2 17 11 20 9 3 16 10 16 15 0 4 -7 6 -15 3 -8 -4 -15 -1 -15 5 0 6 15
11 34 11 36 0 46 12 46 56 0 20 5 24 33 25 17 0 75 2 127 4 52 1 110 1 128 -2
30 -5 32 -8 32 -44 0 -32 4 -39 19 -39 11 0 23 -4 26 -10 3 -5 11 -10 16 -10
6 0 8 4 5 9 -4 5 -2 11 4 13 12 4 -10 58 -22 58 -5 0 -8 4 -8 9 0 5 25 13 55
16 l55 7 0 82 c1 44 5 100 9 124 5 23 5 45 0 48 -5 3 -9 14 -9 25 0 10 -6 19
-12 20 -40 3 -340 4 -377 1z"/>
<path d="M4160 5078 c0 -20 -6 -39 -12 -42 -10 -5 -10 -7 0 -12 6 -3 12 -19
12 -35 0 -25 -4 -29 -29 -29 -16 0 -32 6 -35 13 -5 9 -7 9 -12 0 -3 -7 -20
-15 -39 -19 l-33 -6 -7 -154 -7 -154 -73 0 -72 0 -5 -32 c-2 -18 -3 -120 -2
-227 2 -166 5 -196 19 -203 25 -15 124 -15 129 -1 3 6 1 13 -5 15 -5 2 -5 27
2 66 l11 62 37 1 c20 0 54 0 76 -1 38 -1 40 0 42 29 1 17 -3 31 -9 31 -8 0 -9
35 -3 123 4 67 8 163 9 212 l1 90 233 0 c129 0 237 -2 241 -5 5 -3 11 -43 14
-89 3 -50 10 -87 18 -91 6 -5 10 -19 7 -34 -3 -14 -1 -26 3 -26 10 0 12 -133
3 -167 -4 -13 -14 -23 -23 -23 -13 0 -14 -2 -2 -9 12 -8 13 -14 2 -37 -8 -18
-8 -29 -2 -33 6 -4 7 -21 0 -48 -5 -23 -8 -52 -6 -65 2 -23 0 -23 -96 -23 -67
0 -102 4 -109 13 -13 16 -35 16 -40 0 -4 -12 -45 -16 -165 -18 -26 0 -48 -7
-59 -17 -16 -17 -16 -18 -1 -21 12 -3 17 -14 17 -38 0 -19 -4 -34 -10 -34 -15
0 -12 -47 3 -53 8 -4 9 -8 1 -14 -14 -10 -24 -97 -14 -113 9 -14 153 -18 238
-6 42 7 53 12 56 29 2 12 8 44 13 72 l8 49 120 1 c190 2 185 2 185 29 0 50 13
88 34 96 20 9 20 9 -2 9 -14 1 -22 6 -20 14 3 8 31 13 81 15 l77 3 0 34 c0 24
5 35 15 35 22 0 18 23 -5 38 -11 7 -20 19 -20 27 0 26 29 29 54 6 26 -25 36
-26 36 -6 0 10 11 15 35 15 l35 0 0 75 c0 53 -4 75 -12 76 -7 1 -22 2 -33 3
-11 1 -32 3 -47 4 -32 2 -38 26 -11 41 10 5 15 13 11 17 -11 11 -38 -16 -38
-38 0 -11 -5 -18 -12 -16 -10 4 -14 44 -15 148 -1 84 -7 148 -13 154 -6 6 -41
10 -78 11 l-67 0 3 60 c4 84 -6 94 -93 98 l-70 2 -3 43 c-3 41 -4 42 -38 42
-30 0 -34 3 -34 25 0 14 6 25 13 25 6 0 3 6 -8 12 -13 8 -84 12 -212 13 l-193
0 0 -37z"/>
<path d="M4980 4784 c0 -4 8 -16 17 -26 24 -26 53 -75 115 -193 51 -98 52
-102 53 -185 0 -70 -4 -94 -24 -135 -25 -51 -73 -120 -101 -143 -21 -17 -294
-152 -308 -152 -7 0 -12 -4 -12 -10 0 -5 -18 -15 -40 -21 -22 -7 -40 -16 -40
-21 0 -4 -5 -8 -12 -8 -11 0 -27 -7 -203 -91 -150 -71 -238 -56 -317 56 -45
63 -47 48 -3 -18 23 -34 49 -60 68 -68 18 -7 38 -19 45 -26 22 -21 108 -16
165 11 29 13 62 26 75 30 12 4 22 11 22 15 0 5 17 11 38 15 21 3 47 14 58 25
11 10 34 22 51 25 17 4 39 15 49 24 11 9 45 26 77 36 32 11 60 23 62 27 5 7
169 89 179 89 9 0 70 44 91 65 61 62 105 174 105 271 0 41 -26 145 -39 154 -4
3 -17 25 -30 50 -25 50 -34 66 -73 127 -16 23 -28 46 -28 52 0 6 -9 15 -20 21
-11 6 -20 8 -20 4z"/>
<path d="M3148 4583 l3 -198 -93 -19 c-165 -34 -204 -35 -259 -9 -27 12 -49
27 -49 32 0 6 -9 15 -20 21 -29 16 -24 4 15 -36 44 -44 72 -54 149 -54 67 0
178 18 186 31 3 4 23 9 45 11 l40 3 0 204 c0 127 -4 206 -10 208 -7 2 -9 -66
-7 -194z"/>
<path d="M1880 4713 c-14 -3 -29 -9 -34 -14 -6 -5 -17 -9 -25 -9 -9 -1 -30
-13 -47 -28 -64 -56 -81 -105 -76 -218 2 -47 43 -105 99 -143 41 -26 48 -27
26 -1 -10 11 -23 20 -29 20 -6 0 -23 14 -37 31 -20 24 -27 47 -32 105 -6 63
-4 79 14 116 31 60 100 108 165 115 54 6 127 -9 148 -30 7 -8 25 -21 41 -31
22 -15 26 -16 21 -3 -3 8 -31 31 -62 50 -57 34 -121 49 -172 40z"/>
<path d="M4386 4709 c-77 -11 -113 -34 -158 -99 -34 -48 -38 -60 -38 -115 0
-41 7 -78 20 -109 16 -34 18 -51 11 -65 -15 -27 -253 -251 -267 -251 -6 0 -17
7 -24 15 -7 8 -47 35 -90 60 -91 54 -139 101 -151 147 l-9 33 4 -36 c6 -56 54
-108 138 -154 29 -16 55 -31 58 -34 15 -17 72 -41 97 -41 21 0 33 7 43 25 12
22 28 30 53 26 5 -1 6 3 3 8 -3 5 6 20 20 32 58 52 94 89 94 95 0 3 11 15 25
26 30 23 32 51 9 139 -19 75 -13 126 22 179 50 75 128 109 221 95 37 -5 57
-17 101 -58 41 -39 50 -44 36 -22 -29 45 -51 64 -104 91 -26 13 -50 23 -51 23
-2 -1 -30 -5 -63 -10z"/>
<path d="M3041 3868 c-1 -16 -4 -28 -8 -29 -70 -8 -141 -8 -163 0 -16 5 -31 7
-34 4 -3 -4 -21 -8 -38 -10 -18 -2 -34 -8 -36 -13 -2 -6 -10 -10 -18 -10 -13
0 -15 -10 -18 -109 -1 -22 -6 -25 -39 -27 -28 -2 -48 -13 -78 -42 l-41 -39 0
-347 c0 -191 2 -349 4 -352 3 -2 38 -5 79 -7 l74 -2 2 -74 c2 -41 5 -76 7 -79
3 -2 72 -6 152 -8 81 -3 149 -6 151 -8 3 -2 5 -33 6 -69 l2 -65 35 -6 c19 -3
53 -6 75 -6 l40 0 1 72 c1 44 6 74 13 76 12 4 16 151 4 153 -5 1 -79 2 -165 3
-87 1 -160 5 -164 9 -4 3 -8 56 -9 118 -1 79 -6 113 -15 119 -8 5 -15 38 -18
89 -4 70 -2 81 12 81 13 0 16 12 17 58 1 31 2 84 3 117 l1 60 60 1 c33 1 67 2
76 3 13 1 18 17 24 76 l7 75 41 1 c23 1 60 2 82 3 29 1 40 -3 43 -15 5 -24
-25 -49 -59 -49 -16 0 -29 -4 -29 -10 0 -5 18 -10 39 -10 22 0 41 -5 44 -12 3
-10 9 -10 26 0 37 21 51 15 51 -23 0 -29 4 -35 23 -36 12 0 51 -1 87 -2 l65
-2 17 -65 c9 -36 23 -90 31 -120 11 -40 16 -108 16 -240 1 -173 -5 -248 -40
-480 -16 -101 -16 -114 1 -118 10 -2 19 9 25 30 l10 33 164 3 163 3 -3 397
c-2 218 -1 402 1 407 2 6 0 36 -4 68 -6 45 -19 76 -54 130 -26 40 -54 93 -64
119 -9 26 -26 62 -39 79 -26 37 -121 83 -151 73 -11 -3 -106 -6 -210 -7 -161
0 -192 2 -199 15 -5 8 -20 14 -36 13 -17 -1 -31 5 -35 14 -4 11 -7 7 -7 -11z"/>
<path d="M5398 3867 c12 -13 32 -41 43 -63 22 -43 79 -231 84 -279 2 -16 7
-46 12 -65 13 -57 9 -428 -5 -442 -7 -7 -12 -26 -12 -43 0 -16 -10 -61 -21
-100 -11 -38 -25 -88 -30 -110 -6 -22 -14 -44 -20 -50 -5 -5 -9 -16 -9 -25 0
-35 -92 -111 -171 -140 -46 -18 -72 -21 -145 -17 -85 4 -129 16 -324 90 -8 3
-40 13 -70 23 -30 10 -59 22 -64 26 -6 4 -18 8 -28 8 -9 0 -42 11 -72 25 -30
14 -59 25 -65 25 -6 0 -25 6 -43 14 -111 47 -136 60 -149 78 -36 51 -40 54
-30 26 12 -32 50 -78 65 -78 6 0 23 -6 37 -14 14 -7 52 -21 85 -31 32 -11 61
-22 64 -25 7 -9 60 -28 99 -36 19 -3 40 -12 47 -18 6 -7 38 -18 70 -26 33 -8
61 -17 64 -21 3 -3 32 -14 65 -24 33 -9 65 -21 71 -26 44 -36 239 -52 325 -26
55 17 151 78 171 109 8 13 23 48 33 78 10 30 24 69 31 86 8 17 19 64 25 105 6
41 17 85 23 98 16 36 15 483 -1 489 -7 2 -13 17 -13 33 0 44 -30 169 -41 169
-5 0 -9 9 -9 20 0 50 -62 161 -98 175 -12 4 -10 0 6 -18z"/>
<path d="M1024 3832 l-52 -3 -4 -57 c-3 -31 -6 -136 -7 -232 -1 -96 -4 -176
-6 -178 -2 -2 -25 -4 -52 -4 -27 1 -54 -2 -60 -6 -21 -13 -41 -198 -24 -215 6
-6 11 -29 11 -51 l0 -41 68 0 67 0 -3 -161 -3 -161 83 1 83 1 -1 -77 c-1 -51
3 -78 10 -79 30 -2 129 0 132 3 2 2 5 37 7 78 l4 75 209 -2 c229 -2 256 1 247
24 -3 8 0 18 6 23 7 4 14 31 15 61 l3 54 76 -1 75 -1 4 121 c2 66 2 136 0 154
l-4 32 -75 0 -75 0 3 -77 c3 -63 1 -78 -11 -78 -8 0 -17 11 -21 25 l-6 25 -12
-28 c-10 -26 -15 -28 -58 -25 l-48 3 0 -80 0 -80 -165 1 -165 0 -1 30 c-1 75
-4 84 -23 84 -11 0 -23 9 -26 20 -4 14 -16 20 -38 21 -80 3 -72 -25 -71 249
l0 245 245 0 244 0 3 -42 c2 -24 7 -43 13 -43 5 0 7 -11 3 -25 -5 -20 -3 -24
10 -19 9 3 16 15 16 25 0 33 19 21 26 -16 3 -19 7 -35 8 -36 0 0 52 -3 114 -6
l112 -4 1 33 c0 18 1 89 2 158 l2 125 -155 0 -155 0 -8 47 c-9 46 -10 48 -41
45 -28 -2 -31 1 -34 31 -3 30 -5 32 -45 33 -107 3 -407 4 -453 1z"/>
<path d="M3650 3831 c0 -6 10 -16 22 -22 23 -13 78 -63 78 -72 0 -3 24 -41 53
-84 48 -71 76 -130 105 -220 7 -21 11 -204 12 -493 l1 -460 -235 0 -235 0 -4
33 c-4 32 -4 32 -5 -5 -2 -31 2 -39 21 -43 12 -3 123 -4 247 -3 l225 3 3 453
c2 370 -1 465 -13 524 -8 39 -19 74 -24 77 -5 3 -17 26 -27 51 -10 25 -24 49
-31 53 -7 4 -13 13 -13 20 0 13 -26 48 -84 114 -45 50 -96 90 -96 74z"/>
<path d="M4841 3832 l-34 -7 -1 -75 -2 -75 -182 0 c-130 0 -182 3 -182 11 0
46 -103 -10 -143 -78 -23 -40 -26 -54 -24 -130 1 -47 5 -82 8 -77 8 13 29 -61
28 -97 0 -25 -2 -26 -9 -9 -8 17 -9 16 -9 -9 -1 -19 3 -27 12 -23 10 4 13 -3
12 -22 -2 -27 -1 -28 39 -17 23 5 115 10 206 10 l165 1 10 40 c5 22 12 42 16
45 3 3 10 15 14 28 3 13 18 28 31 34 13 6 24 15 24 20 0 18 70 38 130 38 63 0
105 -15 141 -51 12 -12 23 -18 26 -15 7 7 -50 56 -91 78 -74 41 -196 11 -260
-63 l-33 -39 -11 25 c-13 27 -67 59 -84 49 -8 -5 -9 0 -4 17 4 13 7 36 7 52
-1 23 3 27 26 28 302 6 403 7 425 3 22 -4 28 -12 33 -45 6 -33 10 -39 33 -40
15 -1 31 -1 36 0 5 1 6 -14 3 -34 -6 -38 -6 -37 58 -39 l30 -1 -1 -65 c-3
-244 -5 -261 -22 -259 -9 1 -24 -1 -32 -4 -8 -3 -31 -8 -51 -11 -31 -6 -37
-11 -47 -45 -7 -21 -12 -52 -12 -69 0 -38 -9 -40 -189 -38 l-134 1 -1 61 c-3
83 -19 99 -100 99 l-61 0 -3 66 -3 66 -142 6 c-83 3 -146 2 -152 -4 -5 -5 -9
-69 -10 -143 l0 -134 158 -7 157 -7 0 -28 c0 -16 -6 -31 -12 -34 -10 -5 -10
-7 -1 -12 7 -3 15 -21 19 -40 l6 -34 67 -1 c65 -1 174 -5 218 -8 18 -1 24 -9
29 -41 7 -40 14 -45 57 -40 14 1 17 -3 13 -17 -12 -40 33 -64 108 -56 31 3 56
10 56 14 0 5 16 9 35 9 24 0 35 5 35 15 0 10 -11 15 -35 15 -47 0 -45 18 3 22
l37 3 -3 43 -4 43 71 -4 c39 -2 75 -1 80 3 5 3 12 43 14 90 2 51 8 85 15 88 7
2 12 8 12 13 0 6 -4 8 -9 5 -23 -15 -24 195 -1 218 15 15 12 42 -5 56 -12 10
-14 49 -10 243 l4 232 -76 2 c-42 2 -78 5 -80 7 -2 2 -5 38 -6 81 l-2 77 -140
-7 c-165 -8 -158 -8 -215 -1 -25 2 -60 1 -79 -2z"/>
<path d="M2000 3681 c0 -6 4 -11 9 -11 4 0 20 -17 35 -38 21 -31 26 -49 25
-98 0 -64 -29 -241 -42 -261 -10 -16 -323 -18 -374 -4 -30 9 -31 8 -20 -10 11
-18 25 -19 208 -19 229 0 209 -11 234 134 29 169 16 253 -46 297 -16 11 -29
16 -29 10z"/>
<path d="M3024 3476 c-60 -36 -73 -49 -101 -104 -27 -52 -33 -75 -33 -127 0
-35 7 -80 16 -101 16 -37 125 -154 144 -154 20 0 9 16 -22 33 -18 10 -50 41
-70 70 -37 49 -38 54 -38 134 0 108 23 158 102 218 58 45 175 59 257 31 40
-15 111 -75 111 -96 0 -5 5 -10 11 -10 12 0 -26 58 -55 83 -51 43 -100 60
-177 62 -74 2 -80 1 -145 -39z"/>
<path d="M1310 3455 c-38 -18 -93 -73 -118 -120 -22 -42 -22 -140 1 -188 20
-41 85 -112 95 -102 3 3 -11 22 -31 42 -21 19 -40 46 -43 59 -3 13 -10 24 -15
24 -5 0 -9 24 -9 54 0 101 89 216 168 216 15 0 34 6 40 12 9 9 15 10 20 2 4
-7 27 -15 50 -19 32 -5 56 -19 90 -51 25 -24 47 -42 50 -40 7 8 -70 85 -101
102 -46 23 -154 28 -197 9z"/>
<path d="M2015 3217 c13 -10 25 -48 41 -128 13 -63 24 -127 24 -144 0 -36 -30
-101 -62 -135 -22 -25 -123 -72 -181 -86 -15 -3 -30 -10 -33 -15 -2 -5 -23
-13 -46 -19 -22 -6 -52 -16 -67 -22 -69 -28 -220 -80 -256 -88 -62 -14 -224
-58 -234 -65 -17 -10 -158 27 -207 54 -27 14 -64 46 -83 71 -24 33 -32 38 -26
20 4 -14 11 -27 15 -30 4 -3 12 -15 19 -27 6 -13 16 -23 21 -23 5 0 30 -13 56
-30 26 -16 66 -32 90 -36 24 -3 44 -10 44 -15 0 -5 25 -9 55 -9 30 0 55 4 55
8 0 4 28 14 63 21 34 7 76 19 92 26 17 7 54 18 84 24 30 6 68 18 85 26 17 7
59 21 94 31 34 9 62 21 62 25 0 5 8 9 19 9 18 0 62 16 128 46 17 8 34 14 37
14 3 0 29 11 58 24 60 28 113 82 123 126 4 16 11 32 16 35 11 7 12 75 1 75 -4
0 -16 50 -26 110 -15 88 -23 114 -39 125 -27 19 -47 20 -22 2z"/>
<path d="M3360 2805 l0 -225 -43 -19 c-24 -11 -57 -22 -73 -25 -39 -8 -173 -9
-204 -2 -14 3 -38 8 -55 12 -134 26 -281 101 -366 187 -41 41 -124 146 -132
167 -4 12 -6 12 -6 -2 -1 -9 5 -23 12 -30 7 -7 20 -26 30 -41 71 -110 191
-207 313 -252 27 -10 54 -22 60 -27 22 -16 165 -38 247 -38 97 0 205 23 223
48 17 21 20 472 4 472 -6 0 -10 -82 -10 -225z"/>
<path d="M2163 2700 c14 -11 51 -59 84 -107 32 -49 61 -90 64 -93 3 -3 11 -15
18 -27 11 -21 2 -32 -111 -148 -68 -70 -131 -130 -140 -136 -12 -7 -29 -3 -60
13 -33 18 -57 23 -107 21 -35 -1 -67 -5 -70 -10 -3 -4 -19 -15 -36 -23 -73
-36 -121 -135 -109 -226 3 -30 12 -59 20 -65 8 -6 14 -16 14 -21 0 -12 81 -90
87 -84 3 2 -16 25 -41 51 -35 37 -47 58 -52 92 -16 111 29 199 125 246 54 25
131 37 131 19 0 -9 86 -42 109 -42 15 0 112 86 105 93 -7 7 127 138 135 132 5
-2 15 3 22 13 13 15 12 16 -3 3 -12 -9 -18 -10 -18 -2 0 6 7 14 15 17 8 4 15
12 15 20 0 13 -45 93 -59 104 -3 3 -15 22 -26 43 -11 20 -22 37 -25 37 -3 0
-14 16 -24 35 -11 19 -25 35 -32 35 -6 0 -14 7 -18 15 -3 8 -13 15 -22 15 -13
0 -11 -5 9 -20z"/>
<path d="M4515 2559 c-4 -6 -66 -8 -165 -6 -87 2 -165 0 -172 -4 -9 -6 -13
-31 -13 -80 l0 -71 80 4 80 3 -4 -85 c-3 -77 -2 -83 13 -71 9 7 27 11 41 9 14
-3 25 -1 25 3 0 13 78 11 82 -2 2 -7 35 -12 83 -13 l80 -1 8 -60 c4 -33 8 -70
10 -82 1 -14 9 -23 20 -23 13 0 17 -9 17 -40 0 -22 -4 -40 -9 -40 -5 0 -11
-21 -14 -47 -11 -92 -34 -185 -48 -194 -8 -6 -33 -8 -56 -6 -32 3 -43 1 -43
-9 0 -8 -10 -14 -25 -14 -20 0 -25 -5 -25 -26 0 -25 -2 -26 -37 -21 -20 4 -40
12 -44 18 -5 9 -14 8 -33 -4 -36 -24 -46 -21 -46 13 0 20 -5 30 -15 30 -8 0
-15 5 -15 11 0 7 -11 8 -29 4 -16 -3 -45 -3 -65 1 l-36 6 0 74 c0 43 -4 74
-10 74 -15 0 -13 157 3 163 6 3 -7 6 -30 6 -31 1 -43 5 -43 16 0 20 -10 19
-36 -6 -25 -23 -54 -20 -54 6 0 8 9 20 20 27 23 15 27 38 5 38 -11 0 -15 11
-15 38 l0 37 -48 3 c-26 1 -48 6 -50 11 -7 20 -51 -15 -55 -44 -9 -62 -1 -357
10 -363 6 -4 13 -23 15 -41 4 -48 28 -53 28 -7 0 48 18 55 22 9 2 -21 9 -39
16 -39 6 -1 23 -2 36 -3 23 -1 23 -3 29 -128 10 -191 5 -182 91 -185 l71 -3 3
-64 c3 -73 13 -86 67 -95 49 -7 47 -7 115 2 52 7 54 8 55 37 0 25 4 30 25 32
14 0 30 1 36 2 6 1 10 20 10 44 l-1 42 72 0 c40 1 75 3 78 6 3 3 6 39 8 80 l2
74 35 1 c19 1 56 2 82 3 l46 1 -5 75 c-5 65 -4 75 12 81 10 4 25 3 33 -3 10
-6 33 -6 63 0 47 9 48 11 54 51 4 24 5 58 3 77 -3 34 -3 34 40 33 23 0 42 3
42 8 0 4 16 23 36 41 l36 33 -1 109 c-1 60 -4 111 -6 113 -2 2 -37 5 -77 6
l-73 1 -3 70 c-2 39 -7 74 -12 79 -5 5 -38 8 -74 7 -57 -1 -66 1 -66 16 0 12
-3 14 -8 6 -4 -7 -38 -13 -82 -15 l-75 -3 0 68 c0 45 -4 67 -12 67 -6 0 -18 6
-25 13 -17 18 -76 29 -83 16z"/>
<path d="M1765 2512 c5 -38 3 -51 -9 -62 -15 -11 -15 -14 1 -25 29 -21 6 -30
-75 -30 -43 0 -114 -2 -159 -3 l-83 -2 0 -35 c0 -24 -5 -35 -15 -35 -20 0 -19
-10 6 -36 23 -25 20 -54 -6 -54 -8 0 -20 9 -27 20 -15 23 -38 27 -38 6 0 -10
-13 -16 -37 -18 l-38 -3 -2 -105 c-1 -58 0 -128 3 -156 l5 -51 77 1 77 1 -1
-128 c-1 -124 5 -152 29 -128 6 6 19 11 29 11 14 0 18 -8 18 -35 0 -36 2 -37
60 -39 21 -1 25 -6 26 -31 1 -52 5 -80 11 -67 5 14 63 17 63 2 0 -5 -9 -14
-20 -20 -11 -6 -20 -17 -20 -25 0 -18 16 -20 26 -4 5 8 9 8 14 -1 5 -8 45 -13
116 -15 60 -2 112 -4 117 -4 4 -1 7 -28 7 -60 0 -94 -4 -91 126 -91 104 0 114
2 114 18 0 25 35 56 55 49 12 -5 15 2 16 31 0 20 1 78 2 127 l2 90 72 -2 c46
-1 75 3 80 10 4 6 7 79 7 162 l1 150 45 -1 c25 -1 56 -3 69 -5 34 -6 41 26 44
186 l2 130 -139 0 c-91 0 -145 -4 -155 -12 -14 -10 -16 -42 -16 -240 l0 -228
-100 -8 c-197 -15 -329 -17 -336 -5 -5 8 -41 12 -104 11 -52 0 -98 4 -101 9
-3 5 -6 98 -5 206 0 289 -1 272 17 272 11 0 14 -6 9 -20 -9 -29 4 -24 15 6 10
25 11 25 100 22 66 -2 93 1 99 10 6 10 30 11 99 6 51 -4 92 -11 92 -15 0 -13
28 -11 36 3 4 6 8 44 8 82 l1 71 50 2 c28 0 55 -3 60 -7 6 -5 19 -2 30 6 16
12 20 26 19 74 0 33 -3 62 -5 64 -2 3 -109 7 -238 10 l-233 6 7 -48z"/>
<path d="M3990 2426 c0 -9 5 -16 10 -16 6 0 10 -4 10 -10 0 -5 -7 -10 -15 -10
-8 0 -15 5 -15 10 0 6 -8 10 -17 10 -14 0 -12 -4 7 -17 14 -9 36 -28 49 -42
l24 -26 -17 28 c-10 16 -16 30 -14 33 4 4 98 -84 98 -91 0 -13 -24 -3 -41 18
l-20 22 11 -22 c6 -13 19 -27 30 -33 25 -13 33 -13 24 3 -9 15 24 -14 86 -75
54 -54 81 -59 146 -32 27 12 57 15 100 11 65 -5 94 -18 131 -57 21 -22 24 -23
21 -5 -2 10 -25 33 -52 49 -40 25 -62 31 -121 34 -52 3 -81 0 -103 -12 -17 -9
-40 -16 -52 -16 -13 0 -67 47 -150 131 -73 74 -130 124 -130 115z"/>
<path d="M5062 2360 c21 -17 55 -59 75 -93 37 -60 38 -65 38 -157 0 -68 -5
-103 -16 -125 -9 -16 -35 -65 -58 -108 -45 -86 -52 -96 -159 -227 -107 -131
-235 -237 -397 -329 -123 -69 -216 -99 -277 -90 -65 10 -169 61 -213 105 -20
20 -39 34 -41 31 -7 -6 70 -87 82 -87 5 0 25 -10 44 -22 44 -28 112 -47 169
-48 48 0 161 28 161 40 0 4 21 15 48 25 26 10 51 24 55 32 4 7 14 13 21 13 7
0 21 8 32 18 11 9 35 26 54 36 19 11 39 25 43 33 4 7 13 13 20 13 6 0 23 11
37 25 14 14 53 51 88 83 34 31 62 60 62 65 0 4 15 23 33 41 37 37 127 162 127
176 0 6 4 10 9 10 5 0 17 23 27 50 10 28 22 50 26 50 11 0 38 68 38 96 0 12 5
26 10 29 6 3 10 26 10 50 0 24 -4 47 -10 50 -5 3 -10 17 -10 31 0 28 -22 85
-42 110 -40 49 -76 83 -98 94 -17 8 -14 2 12 -20z"/>
<path d="M2530 2315 c7 -8 18 -15 24 -15 22 0 74 -65 90 -113 15 -44 15 -54 0
-117 -8 -39 -20 -70 -25 -70 -5 0 -9 -5 -9 -10 0 -17 -84 -199 -191 -417 -129
-260 -170 -304 -323 -348 -73 -21 -95 -17 -218 45 -166 85 -270 159 -390 278
-31 31 -60 53 -63 50 -4 -4 5 -14 19 -23 14 -10 26 -23 26 -29 0 -11 24 -34
100 -96 14 -11 38 -31 54 -45 15 -13 41 -30 57 -37 16 -7 29 -16 29 -20 0 -4
15 -15 33 -24 17 -9 34 -20 37 -24 3 -4 26 -15 53 -25 26 -10 47 -21 47 -24 0
-8 71 -41 88 -41 7 0 12 -4 12 -10 0 -12 112 -14 126 -2 5 5 31 17 58 27 73
26 166 95 166 121 0 7 6 19 13 26 6 7 21 31 32 53 11 22 23 42 26 45 3 3 13
26 22 53 9 26 23 54 31 63 9 8 20 33 26 54 6 22 15 40 20 40 6 0 10 5 10 11 0
10 36 88 106 233 13 28 24 58 24 68 0 10 4 18 9 18 5 0 15 24 21 54 8 41 8 65
-1 102 -15 60 -46 114 -65 114 -8 0 -17 6 -20 14 -3 8 -19 19 -36 25 -26 9
-29 9 -18 -4z"/>
<path d="M3573 2103 c42 -33 89 -131 152 -318 8 -22 26 -71 40 -110 15 -38 33
-90 40 -115 7 -25 27 -83 43 -130 65 -183 48 -315 -52 -421 -19 -20 -50 -42
-68 -49 -18 -7 -51 -20 -73 -30 -42 -18 -154 -41 -294 -61 -107 -15 -358 -6
-466 16 -104 22 -241 63 -285 85 -19 10 -50 32 -67 49 -18 16 -33 26 -33 22 0
-12 60 -70 81 -76 10 -4 19 -10 19 -15 0 -10 97 -40 129 -40 12 0 21 -4 21 -9
0 -5 44 -16 98 -25 53 -10 107 -22 120 -29 32 -15 390 -16 423 -1 13 7 74 19
134 29 61 9 115 20 120 24 6 4 32 16 58 25 84 31 177 145 177 216 0 11 5 20
10 20 6 0 10 35 10 85 0 50 -4 85 -10 85 -5 0 -10 8 -10 17 0 27 -34 133 -42
133 -4 0 -8 8 -8 19 0 22 -31 124 -40 131 -4 3 -10 19 -13 37 -3 17 -15 51
-26 75 -10 24 -27 68 -36 98 -10 30 -21 60 -25 65 -4 6 -15 36 -25 68 -10 31
-22 57 -26 57 -5 0 -9 6 -9 13 0 16 -76 87 -92 87 -6 0 5 -12 25 -27z"/>
<path d="M3123 2099 c15 -9 17 -29 17 -193 0 -201 3 -193 -65 -215 -72 -24
-145 -128 -145 -205 0 -51 28 -120 65 -163 19 -21 34 -33 35 -26 0 6 -8 18
-19 25 -10 7 -27 37 -37 66 -10 28 -22 52 -26 52 -18 0 -6 61 21 111 32 61 93
113 151 129 l40 11 0 195 c0 201 -4 225 -42 224 -8 0 -7 -4 5 -11z"/>
<path d="M2828 2073 c-30 -5 -32 -13 -28 -110 1 -25 -3 -43 -9 -43 -6 0 -11
11 -11 25 0 14 -4 25 -9 25 -5 0 -12 8 -14 18 -3 9 -5 -2 -6 -25 -1 -27 -6
-43 -13 -43 -10 0 -13 -39 -15 -156 -1 -86 -3 -157 -5 -159 -2 -2 -31 -5 -66
-7 -39 -2 -62 -7 -62 -15 0 -6 -5 -13 -10 -15 -9 -3 -16 -247 -11 -401 l1 -48
78 3 77 3 -1 -77 -1 -78 81 -1 c212 -4 635 -8 671 -7 22 1 59 2 83 2 27 1 42
6 42 14 0 7 13 12 34 12 21 0 36 6 40 15 4 12 -3 15 -34 15 -22 0 -40 5 -40
10 0 6 16 10 35 10 21 0 36 5 36 13 1 6 2 26 3 42 l1 30 73 1 c40 1 75 4 77 6
8 7 8 221 0 259 -7 38 -16 42 -125 52 l-25 2 -1 175 c-1 239 2 220 -39 220
-29 0 -35 4 -35 21 0 12 8 28 18 35 15 12 11 13 -34 14 -68 0 -77 12 -72 99
l3 70 -92 0 c-54 0 -93 -4 -93 -9 0 -6 -11 -10 -25 -10 -16 0 -25 -6 -25 -15
0 -10 -10 -15 -30 -15 l-30 0 0 -89 c0 -48 3 -108 6 -132 l6 -45 61 -2 c33 -1
62 -4 65 -6 2 -3 6 -22 9 -44 4 -33 9 -39 24 -35 11 3 26 0 34 -7 17 -14 21
-55 5 -45 -5 3 -10 2 -10 -4 0 -5 23 -11 52 -13 l52 -3 4 -144 c4 -169 1 -175
-92 -186 -32 -4 -59 -13 -62 -19 -2 -6 -6 -40 -7 -76 l-4 -65 -119 -1 c-176
-1 -204 3 -204 31 0 50 -12 85 -31 85 -10 0 -20 9 -24 19 -5 15 -17 21 -53 23
l-47 3 -7 49 c-4 27 -6 137 -4 245 l3 196 81 3 82 3 0 149 0 150 -72 0 c-40 0
-82 2 -93 4 -11 2 -32 1 -47 -1z"/>
</g>
</svg>
