<?xml version="1.0" standalone="no"?>
<!DOCTYPE svg PUBLIC "-//W3C//DTD SVG 20010904//EN"
 "http://www.w3.org/TR/2001/REC-SVG-20010904/DTD/svg10.dtd">
<svg version="1.0" xmlns="http://www.w3.org/2000/svg"
 width="640.000000pt" height="640.000000pt" viewBox="0 0 640.000000 640.000000"
 preserveAspectRatio="xMidYMid meet">
<metadata>
Created by potrace 1.16, written by Peter Selinger 2001-2019
</metadata>
<g transform="translate(0.000000,640.000000) scale(0.100000,-0.100000)"
fill="#000000" stroke="none">
<path d="M3060 5629 c-221 -8 -449 -68 -525 -136 -11 -10 -37 -50 -58 -89 -34
-66 -37 -79 -37 -154 0 -44 4 -79 8 -76 5 3 14 -25 21 -62 7 -37 24 -100 37
-141 13 -40 24 -81 24 -90 0 -9 6 -28 14 -43 8 -14 20 -43 26 -64 7 -22 23
-59 36 -84 12 -24 20 -48 18 -52 -3 -4 -1 -8 5 -8 6 0 8 -6 5 -13 -2 -7 0 -24
5 -38 5 -13 10 -17 11 -9 0 12 3 11 11 -3 5 -9 7 -22 3 -29 -4 -6 -3 -8 3 -5
5 3 23 -24 41 -60 21 -44 27 -63 17 -59 -23 9 -18 -1 26 -46 l41 -43 97 0 c98
0 246 21 269 38 9 7 12 56 11 186 -1 192 -11 254 -44 259 -39 6 -100 57 -122
102 -77 157 76 331 235 265 73 -31 122 -103 122 -180 0 -78 -47 -145 -125
-182 l-40 -18 -8 -120 c-4 -66 -6 -160 -5 -210 l3 -90 30 -9 c17 -5 39 -12 50
-17 11 -4 62 -15 114 -24 85 -14 98 -14 147 0 30 9 54 19 54 24 0 5 9 11 20
14 11 3 24 18 30 34 6 15 19 44 29 63 11 19 22 52 26 73 4 20 10 37 14 37 4 0
13 21 20 48 8 26 20 61 27 77 22 51 74 184 126 325 l50 135 -7 95 c-4 56 -14
112 -24 136 -29 64 -114 132 -201 160 -239 77 -363 94 -630 83z"/>
<path d="M4185 5256 c-86 -44 -180 -140 -231 -236 -67 -126 -122 -244 -161
-345 -19 -49 -38 -94 -41 -100 -4 -5 -7 -12 -7 -15 -1 -21 -40 -118 -47 -114
-4 3 -5 -2 -2 -10 3 -9 1 -16 -5 -16 -7 0 -11 -6 -10 -12 2 -7 -1 -28 -5 -46
-5 -19 -3 -53 4 -82 15 -61 60 -104 182 -172 98 -55 138 -61 158 -23 7 14 18
25 24 25 5 0 24 13 40 29 17 16 48 45 69 65 20 19 37 39 37 43 0 5 9 14 20 21
12 7 17 18 14 27 -4 9 1 24 10 34 20 22 22 57 7 94 -28 69 4 160 72 205 33 22
52 27 102 27 50 0 69 -5 102 -27 46 -31 83 -97 83 -149 -1 -125 -135 -211
-256 -164 -25 9 -47 16 -49 14 -96 -91 -315 -313 -315 -320 0 -17 89 -144 134
-191 25 -26 56 -50 70 -54 14 -3 26 -10 26 -14 0 -4 14 -13 31 -19 31 -11 110
0 134 18 5 5 31 16 58 26 26 10 47 21 47 25 0 4 17 10 38 14 21 3 48 15 59 26
12 11 27 20 33 20 18 0 370 170 426 206 102 65 144 137 151 258 5 78 -15 191
-36 206 -4 3 -17 25 -30 50 -25 50 -34 66 -73 127 -16 23 -28 44 -28 47 0 3
-28 42 -61 86 -54 70 -185 200 -203 200 -3 0 -16 9 -28 20 -67 59 -58 53 -160
109 -23 13 -45 27 -48 31 -9 12 -124 63 -150 66 -121 17 -134 16 -185 -10z"/>
<path d="M1980 5261 c-101 -17 -385 -188 -487 -293 -49 -50 -81 -96 -103 -145
-5 -13 -14 -23 -20 -23 -5 0 -10 -7 -10 -15 0 -8 -9 -24 -20 -35 -11 -11 -20
-24 -20 -30 0 -5 -6 -10 -12 -10 -13 0 -88 -108 -88 -125 0 -5 -7 -16 -15 -25
-8 -9 -26 -47 -40 -85 -48 -133 -18 -265 82 -355 38 -35 55 -46 128 -85 22
-12 58 -32 80 -46 45 -29 130 -69 144 -69 5 0 16 -6 23 -13 15 -15 81 -47 97
-47 6 0 11 -4 11 -8 0 -5 19 -15 43 -21 23 -7 70 -26 104 -42 34 -16 66 -29
72 -29 5 0 11 -6 13 -12 6 -17 195 -18 206 -2 4 6 17 16 30 23 12 6 32 32 43
56 11 24 27 49 35 56 8 6 14 17 14 24 0 8 3 15 8 17 4 2 19 22 35 45 28 44 35
73 17 73 -5 0 -10 6 -10 13 0 7 -38 51 -85 97 -47 47 -90 94 -96 105 -7 15 -6
15 7 -2 9 -13 21 -23 26 -23 5 0 45 -36 88 -80 43 -43 90 -82 103 -85 26 -7
74 13 106 43 10 9 44 32 75 51 31 18 56 37 56 40 0 4 10 18 23 31 19 22 22 35
22 113 0 51 -4 91 -11 95 -6 4 -17 25 -26 47 -9 22 -50 114 -93 205 -42 91
-83 179 -90 195 -7 17 -27 60 -44 98 -17 37 -31 72 -31 78 0 5 -36 45 -79 88
-71 70 -85 79 -128 86 -26 4 -52 10 -58 15 -15 11 -86 18 -125 11z m8 -596
c49 -21 81 -52 103 -100 24 -52 23 -99 -2 -155 l-20 -44 23 -18 c38 -28 64
-50 51 -43 -7 3 -13 1 -13 -4 0 -19 -21 -12 -57 19 -40 36 -56 37 -75 8 -22
-33 -109 -36 -168 -6 -62 32 -86 73 -95 157 -8 80 5 115 58 155 63 48 128 58
195 31z"/>
<path d="M3025 3993 c-234 -62 -314 -104 -425 -227 -74 -82 -153 -235 -175
-341 -17 -79 -19 -209 -5 -305 17 -123 20 -134 33 -164 8 -17 27 -62 43 -101
30 -73 109 -163 170 -195 16 -8 49 -26 74 -41 25 -14 68 -34 95 -44 28 -10 55
-22 61 -27 22 -16 165 -38 247 -38 97 0 205 23 223 48 21 27 20 445 -1 462
-17 14 -61 9 -125 -15 -109 -41 -249 19 -295 127 -22 55 -20 162 6 215 40 82
145 141 235 130 92 -10 193 -89 210 -165 4 -15 12 -32 19 -38 11 -8 15 -99 21
-407 7 -392 7 -397 28 -403 12 -2 122 -3 246 -2 l225 3 3 445 c3 463 -2 535
-38 616 -99 224 -153 283 -356 391 -100 52 -127 62 -188 68 -39 4 -75 10 -81
13 -19 12 -200 8 -250 -5z"/>
<path d="M5137 3960 c-16 -5 -35 -6 -43 -3 -8 3 -14 0 -14 -6 0 -6 -9 -11 -21
-11 -11 0 -28 -4 -38 -9 -10 -6 -28 -11 -42 -13 -13 -2 -30 -7 -37 -12 -7 -4
-19 -5 -27 -2 -8 3 -15 2 -15 -2 0 -5 -24 -14 -52 -21 -86 -21 -320 -98 -383
-126 -32 -14 -73 -37 -91 -50 -17 -13 -35 -21 -40 -17 -5 4 -6 3 -3 -1 4 -5
-11 -25 -33 -46 l-40 -37 11 -88 c7 -48 9 -96 6 -107 -4 -10 -2 -19 4 -19 6 0
7 -14 4 -35 -3 -20 -1 -35 4 -35 5 0 8 -13 5 -30 -2 -16 0 -30 6 -30 18 0 23
-32 8 -49 -18 -20 -46 -176 -46 -257 0 -34 5 -76 11 -95 12 -36 56 -89 73 -89
6 0 23 -6 37 -14 14 -7 52 -21 85 -31 32 -11 61 -22 64 -26 3 -4 25 -14 50
-22 25 -9 92 -35 150 -60 218 -91 260 -102 406 -102 128 0 131 0 195 34 153
79 167 107 219 416 31 188 31 455 0 530 -5 11 -12 43 -15 70 -7 54 -57 208
-86 266 -10 20 -34 50 -53 67 -54 47 -197 82 -259 62z m-134 -546 c53 -28 116
-86 127 -117 15 -44 12 -97 -9 -142 -46 -99 -158 -141 -256 -96 -48 22 -76 52
-102 106 l-18 40 -120 6 c-66 4 -149 7 -185 8 -55 2 -61 4 -40 13 16 6 74 8
158 4 113 -5 132 -4 132 9 0 10 10 15 29 15 25 0 31 6 41 35 34 104 156 163
243 119z"/>
<path d="M1096 3948 c-98 -16 -201 -101 -237 -197 -27 -72 -77 -374 -80 -486
-5 -135 0 -227 10 -220 6 3 7 -9 4 -31 -4 -25 -3 -35 4 -31 7 5 15 -24 23 -81
15 -106 62 -255 96 -299 31 -41 107 -86 151 -90 18 -1 41 -7 52 -13 23 -12
121 -14 121 -2 0 4 28 14 63 21 34 7 76 19 92 26 17 7 54 18 84 24 30 6 68 18
85 26 17 7 59 21 94 31 34 9 62 21 62 25 0 5 8 9 19 9 17 0 54 13 126 44 17 8
59 24 94 37 68 26 117 75 128 132 3 15 10 30 14 33 11 7 12 74 1 74 -4 0 -16
50 -26 110 -15 88 -23 114 -39 125 -25 17 -41 20 -32 5 4 -7 -61 -10 -189 -10
l-194 0 -12 -36 c-26 -78 -114 -143 -193 -144 -77 0 -154 51 -188 125 -76 163
102 341 266 266 48 -22 99 -76 114 -124 7 -19 20 -38 29 -42 9 -4 103 -10 207
-13 l190 -4 13 23 c17 33 42 190 42 261 0 69 -18 113 -63 155 -41 38 -490 205
-733 272 -48 13 -114 13 -198 -1z"/>
<path d="M1875 2669 c-71 -33 -155 -71 -185 -85 -30 -14 -71 -34 -91 -45 -20
-10 -44 -19 -53 -19 -9 0 -16 -5 -16 -12 0 -6 -3 -9 -6 -5 -3 3 -11 1 -18 -4
-29 -26 -170 -98 -179 -92 -5 3 -7 1 -4 -4 4 -6 -3 -18 -16 -26 -74 -51 -123
-129 -133 -215 -3 -26 -10 -61 -15 -79 -8 -26 -4 -53 20 -138 46 -158 76 -210
172 -296 44 -41 105 -96 134 -124 30 -27 66 -60 82 -73 15 -12 41 -33 57 -47
15 -13 41 -30 57 -37 16 -7 29 -16 29 -20 0 -4 15 -15 33 -24 17 -9 34 -20 37
-23 9 -11 175 -92 188 -91 6 0 12 -4 12 -10 0 -12 117 -14 124 -1 3 4 27 14
53 21 63 17 173 98 173 127 0 6 6 18 13 25 6 7 21 31 32 53 11 22 23 42 26 45
3 3 13 26 22 53 9 26 23 54 31 63 9 8 20 33 26 54 6 22 15 40 20 40 6 0 10 5
10 11 0 10 36 88 106 233 13 28 24 58 24 68 0 10 4 18 9 18 5 0 15 24 21 54 8
41 8 65 -1 102 -14 56 -46 114 -62 114 -6 0 -17 7 -26 15 -24 24 -183 125
-196 125 -6 0 -21 -7 -33 -16 -13 -9 -22 -11 -22 -4 0 6 7 13 15 16 8 4 15 12
15 20 0 23 -54 104 -67 100 -7 -3 -10 1 -7 9 5 12 -19 60 -37 75 -3 3 -14 20
-24 38 -11 17 -23 32 -29 32 -5 0 -14 7 -21 16 -8 12 -32 17 -91 20 -78 3 -80
2 -209 -57z m450 -319 c-22 -22 -44 -41 -50 -41 -5 -1 -52 -46 -104 -100 l-93
-98 21 -43 c49 -102 4 -219 -101 -263 -157 -65 -318 96 -253 253 42 99 155
148 250 108 31 -13 36 -13 67 10 18 14 42 24 54 22 19 -3 88 45 78 54 -7 8
126 139 136 133 5 -3 12 0 15 6 4 5 10 8 13 4 3 -3 -12 -23 -33 -45z"/>
<path d="M4200 2711 c-8 -6 -18 -7 -22 -5 -5 3 -7 1 -6 -4 4 -13 -69 -92 -78
-84 -4 4 -4 2 -1 -4 4 -6 -8 -31 -26 -55 -40 -53 -77 -116 -77 -131 0 -16 203
-218 220 -218 8 0 29 -14 47 -31 l32 -32 50 22 c65 28 106 27 170 -5 110 -55
145 -195 71 -284 -52 -61 -63 -70 -104 -81 -94 -25 -187 16 -230 102 -28 57
-33 101 -15 146 23 60 21 73 -18 118 -21 24 -48 58 -61 74 -13 17 -28 28 -34
25 -7 -4 -8 -2 -4 5 4 6 0 14 -10 18 -20 8 -94 82 -94 94 0 5 -7 9 -15 9 -8 0
-15 5 -15 10 0 17 -20 11 -58 -17 -20 -16 -32 -21 -28 -13 4 8 -1 6 -11 -6
-20 -23 -83 -69 -83 -60 0 3 -24 -18 -53 -46 -43 -41 -53 -56 -50 -77 3 -15 1
-21 -4 -14 -5 6 -8 -12 -9 -43 0 -34 3 -49 9 -41 5 7 7 2 3 -14 -4 -17 -1 -31
8 -38 7 -6 16 -29 20 -50 3 -22 13 -46 21 -55 8 -8 15 -22 15 -30 0 -9 5 -16
11 -16 5 0 7 -4 4 -10 -3 -5 -2 -10 4 -10 6 0 7 -7 4 -17 -4 -11 -3 -14 5 -9
8 5 10 2 6 -8 -3 -9 -2 -16 3 -16 5 0 17 -22 27 -50 10 -27 22 -50 26 -50 9 0
23 -39 20 -59 -1 -7 3 -10 9 -6 7 3 8 0 5 -9 -3 -8 3 -23 13 -33 11 -11 17
-25 15 -33 -3 -7 0 -10 5 -7 6 4 15 -6 22 -21 11 -25 10 -26 -4 -8 -8 11 -15
16 -15 12 0 -15 30 -64 41 -68 7 -2 13 -13 14 -24 5 -42 18 -74 32 -74 8 0 12
-4 8 -10 -6 -10 66 -90 81 -90 5 0 25 -10 44 -22 44 -28 112 -47 169 -48 48 0
161 28 161 40 0 4 21 15 48 25 26 10 51 24 55 32 4 7 14 13 21 13 7 0 21 8 32
18 11 9 35 26 54 36 19 11 39 25 43 33 4 7 14 13 22 13 8 0 20 8 27 18 7 10
27 27 43 39 73 52 275 282 319 363 13 25 32 77 41 115 10 39 21 78 26 87 14
28 10 78 -11 147 -39 129 -98 184 -308 288 -75 37 -141 73 -147 79 -5 6 -31
17 -57 25 -26 7 -45 16 -42 20 2 4 -8 10 -21 13 -14 4 -55 20 -90 36 -35 16
-76 32 -90 36 -14 3 -28 10 -31 15 -3 5 -10 7 -15 4 -5 -4 -9 -1 -9 4 0 14
-159 15 -180 2z"/>
<path d="M2791 2137 c-41 -11 -47 -17 -65 -62 -11 -27 -24 -51 -28 -53 -4 -2
-8 -10 -8 -18 0 -7 -31 -91 -69 -186 -61 -155 -122 -324 -123 -345 0 -5 -5
-19 -10 -33 -5 -14 -12 -36 -15 -50 -2 -14 -9 -43 -15 -65 -17 -68 -21 -116
-10 -139 6 -11 16 -47 22 -78 14 -71 55 -129 112 -156 50 -25 201 -65 308 -83
41 -7 81 -17 89 -23 19 -15 505 -12 590 4 84 15 138 43 238 124 l81 67 12 86
c28 193 5 298 -140 638 -39 94 -79 190 -87 215 -8 25 -18 47 -22 50 -4 3 -13
21 -21 40 -21 54 -24 56 -114 70 -74 11 -99 11 -192 -4 -155 -23 -147 -10
-142 -241 3 -104 8 -198 12 -207 4 -9 24 -22 43 -29 48 -15 102 -66 124 -114
75 -164 -103 -342 -266 -266 -105 49 -152 166 -106 266 21 48 76 99 124 114
32 11 35 15 41 64 3 29 6 123 6 210 0 121 -3 157 -12 156 -7 -2 -28 1 -47 5
-24 6 -30 11 -20 17 10 6 5 8 -16 7 -16 0 -63 6 -103 16 -84 18 -110 19 -171
3z"/>
</g>
</svg>
