<?xml version="1.0" standalone="no"?>
<!DOCTYPE svg PUBLIC "-//W3C//DTD SVG 20010904//EN"
 "http://www.w3.org/TR/2001/REC-SVG-20010904/DTD/svg10.dtd">
<svg version="1.0" xmlns="http://www.w3.org/2000/svg"
 width="640.000000pt" height="640.000000pt" viewBox="0 0 640.000000 640.000000"
 preserveAspectRatio="xMidYMid meet">

<g transform="translate(0.000000,640.000000) scale(0.100000,-0.100000)"
fill="#000000" stroke="none">
<path d="M0 3200 l0 -3200 3200 0 3200 0 0 3200 0 3200 -3200 0 -3200 0 0
-3200z m3370 2418 c36 -5 97 -19 135 -30 39 -11 93 -25 120 -32 85 -21 128
-46 169 -97 74 -92 105 -204 87 -306 -6 -30 -15 -61 -20 -67 -4 -6 -11 -24
-15 -41 -4 -16 -19 -59 -33 -95 -30 -77 -70 -183 -128 -345 -74 -207 -90 -231
-173 -259 -39 -14 -53 -14 -140 3 -53 11 -113 22 -134 25 -20 4 -39 14 -42 22
-8 20 -8 154 1 277 7 105 3 98 63 121 17 7 44 23 73 46 33 26 67 110 67 168 0
84 -49 165 -120 199 -42 19 -92 33 -121 33 -43 0 -133 -44 -157 -76 -12 -16
-26 -34 -30 -40 -39 -46 -39 -179 0 -242 22 -37 100 -92 129 -92 10 0 25 -7
33 -16 13 -13 16 -46 16 -202 l0 -187 -93 -19 c-199 -41 -249 -36 -317 33 -25
25 -120 233 -120 263 0 6 -6 24 -14 41 -8 18 -25 64 -38 102 -12 39 -26 72
-30 73 -5 2 -8 10 -8 17 0 7 -7 35 -15 61 -71 233 -82 328 -46 406 11 26 21
51 21 55 0 5 8 16 18 25 9 9 25 28 35 42 25 36 94 64 242 97 28 6 55 15 60 19
9 7 114 23 215 34 52 6 236 -4 310 -16z m1065 -387 c116 -55 264 -153 337
-221 14 -14 35 -32 45 -40 10 -8 48 -49 83 -90 36 -41 68 -76 73 -78 4 -2 7
-9 7 -15 0 -6 8 -19 17 -29 24 -26 53 -75 115 -193 51 -98 52 -102 53 -185 0
-70 -4 -94 -24 -135 -25 -51 -73 -120 -101 -143 -21 -17 -294 -152 -308 -152
-7 0 -12 -4 -12 -10 0 -5 -18 -15 -40 -21 -22 -7 -40 -16 -40 -21 0 -4 -5 -8
-12 -8 -11 0 -27 -7 -203 -91 -166 -79 -242 -57 -343 96 -29 44 -59 88 -67 98
-8 9 -15 24 -15 33 0 19 236 261 262 270 11 3 31 -2 45 -11 63 -42 194 -27
254 29 55 51 72 92 70 169 -3 108 -38 167 -129 212 -42 21 -54 22 -111 14 -83
-12 -117 -33 -163 -99 -34 -48 -38 -60 -38 -115 0 -41 7 -78 20 -109 15 -33
18 -51 11 -64 -15 -28 -252 -252 -266 -252 -7 0 -18 7 -25 15 -7 8 -48 36 -91
61 -133 79 -174 145 -154 251 7 42 197 466 257 573 10 19 31 60 46 90 59 119
192 209 312 209 44 1 71 -7 135 -38z m-2346 18 c118 -27 242 -129 277 -228 9
-25 27 -68 40 -96 13 -27 73 -158 134 -290 l112 -240 -5 -65 c-5 -64 -6 -66
-62 -117 -32 -29 -64 -53 -71 -53 -7 0 -14 -3 -16 -7 -1 -5 -23 -21 -48 -38
-25 -16 -48 -34 -51 -39 -7 -9 -61 28 -95 66 -12 13 -60 61 -109 108 l-87 84
20 61 c23 67 26 103 11 155 -22 76 -31 89 -91 125 -52 33 -68 38 -124 38 -37
0 -69 -4 -76 -11 -7 -7 -19 -12 -28 -12 -35 -1 -107 -85 -117 -137 -9 -49 -2
-147 11 -168 28 -41 78 -84 123 -105 53 -25 115 -23 175 4 18 8 40 16 48 18
15 5 75 -46 134 -112 17 -19 53 -57 79 -84 27 -28 52 -56 56 -64 8 -14 -35
-97 -68 -132 -8 -8 -20 -29 -27 -46 -19 -44 -67 -90 -110 -104 -53 -18 -141
-6 -205 27 -30 16 -74 37 -99 48 -25 10 -64 27 -87 37 -23 10 -45 18 -48 18
-4 0 -37 18 -75 40 -38 22 -74 40 -80 40 -7 0 -49 22 -94 49 -44 26 -88 51
-96 55 -54 25 -130 90 -130 111 0 7 -9 22 -19 34 -26 30 -45 122 -38 191 5 53
34 121 92 215 14 22 28 48 31 58 4 9 10 17 15 17 5 0 9 6 9 13 0 6 15 29 33
49 17 21 50 61 72 88 35 44 93 99 210 196 46 38 43 36 165 109 183 108 211
117 309 94z m1184 -1253 c105 -15 286 -85 333 -130 6 -6 26 -22 43 -36 50 -39
95 -82 106 -102 6 -9 30 -48 55 -85 42 -62 70 -123 98 -210 7 -21 11 -204 12
-493 l1 -460 -237 2 -236 3 -1 405 -2 405 -28 57 c-55 113 -128 160 -248 163
-74 2 -80 1 -145 -39 -60 -36 -73 -49 -101 -104 -27 -52 -33 -75 -33 -127 0
-83 20 -128 89 -195 73 -72 137 -91 234 -71 34 7 64 16 67 20 9 14 54 41 67
41 10 0 13 -50 13 -230 l0 -230 -43 -19 c-24 -11 -57 -22 -73 -25 -39 -8 -173
-9 -204 -2 -14 3 -38 8 -55 12 -134 26 -281 101 -366 187 -54 54 -124 149
-139 187 -7 19 -17 39 -22 45 -4 5 -8 18 -8 30 0 12 -4 25 -9 30 -28 32 -40
239 -20 349 20 109 76 236 141 320 120 152 268 250 433 285 33 7 71 17 85 22
25 8 118 6 193 -5z m-1908 -78 c50 -16 99 -33 110 -38 11 -5 45 -16 75 -25 30
-9 63 -20 72 -26 10 -5 24 -9 31 -9 7 0 36 -11 64 -25 28 -13 64 -27 80 -31
15 -4 33 -10 38 -14 6 -4 40 -18 78 -30 113 -38 157 -90 156 -185 0 -65 -29
-242 -42 -262 -6 -10 -52 -13 -171 -13 -172 0 -226 6 -231 24 -2 6 -6 23 -9
39 -8 34 -67 101 -109 123 -44 22 -136 29 -182 14 -42 -14 -105 -73 -132 -123
-22 -41 -23 -143 -3 -183 30 -60 64 -94 116 -120 46 -23 62 -26 106 -20 101
14 149 48 195 142 20 40 36 60 53 65 14 4 95 7 181 8 116 1 160 -2 174 -12 13
-10 25 -48 41 -128 13 -63 24 -127 24 -144 0 -36 -30 -101 -62 -135 -22 -25
-123 -72 -181 -86 -15 -3 -30 -10 -33 -15 -2 -5 -23 -13 -46 -19 -22 -6 -52
-16 -67 -22 -69 -28 -220 -80 -256 -88 -63 -14 -224 -58 -235 -65 -14 -9 -151
25 -201 51 -86 43 -120 105 -179 329 -61 229 -47 530 36 790 14 44 31 91 37
105 23 46 95 108 154 130 123 46 173 46 318 -2z m3949 2 c76 -39 101 -62 130
-124 26 -54 76 -221 81 -271 2 -16 9 -55 15 -85 15 -69 8 -406 -9 -423 -6 -6
-11 -25 -11 -42 0 -16 -10 -61 -21 -100 -11 -38 -25 -88 -30 -110 -6 -22 -14
-44 -20 -50 -5 -5 -9 -16 -9 -25 0 -35 -92 -111 -170 -140 -62 -23 -204 -30
-238 -11 -11 6 -62 25 -114 41 -51 17 -102 35 -113 40 -11 4 -45 16 -75 26
-30 10 -59 22 -64 26 -6 4 -18 8 -28 8 -9 0 -42 11 -72 25 -30 14 -59 25 -65
25 -6 0 -25 6 -43 14 -18 8 -52 22 -76 32 -102 42 -136 118 -113 251 20 113
33 167 44 181 7 9 59 12 197 12 l188 0 13 -46 c40 -133 187 -200 318 -143 99
42 154 175 119 290 -6 22 -15 39 -20 39 -4 0 -8 5 -8 11 0 13 -52 58 -94 81
-44 24 -126 23 -180 -3 -43 -20 -132 -106 -122 -117 3 -3 1 -11 -4 -18 -6 -6
-10 -16 -9 -20 6 -34 1 -34 -203 -32 l-203 3 -23 105 c-30 141 -27 224 11 273
34 45 91 78 182 107 39 12 86 30 105 39 51 26 262 96 455 150 101 29 200 22
279 -19z m-3164 -1212 c30 -21 138 -162 175 -230 l15 -28 -122 -126 c-68 -69
-131 -129 -140 -135 -12 -7 -29 -3 -60 13 -33 18 -57 23 -107 21 -35 -1 -67
-5 -70 -10 -3 -4 -19 -15 -36 -23 -73 -36 -121 -135 -109 -226 3 -30 12 -59
20 -65 8 -6 14 -16 14 -21 0 -15 66 -75 102 -94 46 -24 161 -14 210 18 21 12
37 27 38 31 0 5 10 23 23 40 52 71 57 143 17 222 -11 22 -20 44 -20 50 0 10
85 95 155 157 11 9 40 38 64 63 46 46 63 53 84 34 20 -17 148 -99 156 -99 18
0 71 -70 85 -113 15 -44 15 -54 0 -117 -8 -39 -20 -70 -25 -70 -5 0 -9 -5 -9
-10 0 -17 -84 -199 -191 -417 -129 -260 -170 -304 -323 -348 -73 -21 -95 -17
-218 45 -168 86 -278 165 -398 285 -67 67 -200 240 -200 260 0 8 -4 15 -8 17
-5 2 -26 37 -46 78 -21 41 -41 82 -46 90 -36 72 -22 189 35 286 34 57 119 131
175 149 25 8 65 29 90 45 25 16 50 30 56 30 7 0 52 20 100 44 150 73 257 122
306 140 26 10 50 22 53 27 4 5 32 9 64 9 44 0 66 -6 91 -22z m2264 -16 c45
-21 101 -47 126 -57 72 -30 255 -117 260 -125 3 -4 55 -33 116 -64 138 -71
174 -100 221 -179 37 -60 38 -65 38 -157 0 -68 -5 -103 -16 -125 -9 -16 -35
-65 -58 -108 -45 -86 -52 -96 -159 -227 -143 -175 -372 -340 -558 -404 -84
-28 -129 -24 -230 24 -63 29 -154 109 -154 134 0 7 -9 23 -20 36 -11 13 -20
28 -20 34 0 6 -7 25 -16 41 -8 17 -40 85 -70 153 -30 68 -65 144 -79 170 -129
252 -141 334 -61 415 23 23 51 48 62 54 10 7 47 31 80 53 34 22 68 40 76 40 8
0 44 -29 82 -65 37 -36 72 -65 77 -65 5 0 9 -6 9 -12 0 -7 23 -35 50 -63 52
-51 60 -76 36 -110 -58 -84 -5 -244 99 -294 121 -58 261 -10 312 109 23 51 17
154 -10 210 -31 63 -104 100 -196 100 -38 -1 -76 -7 -91 -15 -49 -28 -64 -20
-177 93 -59 60 -118 120 -131 134 l-23 26 34 48 c19 27 44 70 56 97 13 26 27
47 31 47 5 0 11 9 15 20 9 30 101 70 159 70 37 0 70 -10 130 -38z m-1399 -569
c137 -24 125 -4 125 -217 0 -201 3 -193 -65 -215 -72 -24 -145 -128 -145 -206
0 -74 51 -165 114 -204 49 -31 152 -39 210 -17 77 29 154 151 141 220 -24 122
-69 185 -152 208 l-48 14 -3 197 c-2 183 -1 197 15 197 10 0 62 11 116 25 118
30 156 31 205 5 51 -27 77 -51 96 -89 18 -33 78 -186 101 -256 8 -22 26 -71
40 -110 15 -38 33 -90 40 -115 7 -25 27 -83 43 -130 65 -183 48 -315 -52 -421
-19 -20 -50 -42 -68 -49 -18 -7 -51 -20 -73 -30 -42 -18 -154 -41 -294 -61
-107 -15 -358 -6 -466 16 -98 21 -240 62 -280 83 -75 37 -112 85 -145 182 -31
93 -28 158 13 275 107 304 211 584 235 634 18 35 73 76 113 84 28 5 63 1 184
-20z"/>
</g>
</svg>
